# xmcd
#
# Track frame offsets: 
#        150
#        16542
#        34770
#        57807
#        73910
#        89080
#        106940
#        134392
#        156017
#        179597
#
# Disc length: 2639 seconds
#
# Revision: 1
# Processed by: cddbd v1.5.2PL0 Copyright (c) Steve Scherf et al.
# Submitted via: ExactAudioCopy v1.3
#
DISCID=820a4d0a
DTITLE=J-Train - J-Train
DYEAR=1993
DGENRE=Hard Rock
TTITLE0=Feel the Itch
TTITLE1=Raincheck
TTITLE2=Let Me Love Somebody
TTITLE3=Hallucinations
TTITLE4=Wish You Away
TTITLE5=Neverland
TTITLE6=Killing Fields
TTITLE7=Tango
TTITLE8=Whiskey Road
TTITLE9=That Girl
EXTD=
EXTT0=
EXTT1=
EXTT2=
EXTT3=
EXTT4=
EXTT5=
EXTT6=
EXTT7=
EXTT8=
EXTT9=
PLAYORDER=
